<?xml version="1.0" encoding="utf-8"?>
<svg version="1.1" id="Layer_1" xmlns="http://www.w3.org/2000/svg" xmlns:xlink="http://www.w3.org/1999/xlink" x="0px" y="0px"
	 viewBox="0 0 2560 1600" enable-background="new 0 0 2560 1600" xml:space="preserve">
<pattern  width="176" height="176" patternUnits="userSpaceOnUse" id="New_Pattern" viewBox="176.339 -352.339 176 176" overflow="visible">
	<g>
		<polygon fill="none" points="176.339,-352.339 352.339,-352.339 352.339,-176.339 176.339,-176.339 		"/>
		<polygon points="520.339,-8.339 516.277,-0.214 512.214,-8.339 508.358,-0.627 504.502,-8.339 500.419,-0.174 496.336,-8.339 
			492.352,-0.371 488.368,-8.339 484.367,-0.338 480.366,-8.339 476.381,-0.369 472.396,-8.339 468.456,-0.46 464.517,-8.339 
			460.447,-0.2 456.378,-8.339 452.251,-0.086 448.124,-8.339 444.353,-0.795 440.58,-8.339 436.506,-0.19 432.431,-8.339 
			428.488,-0.454 424.546,-8.339 420.533,-0.313 416.52,-8.339 412.35,0 408.181,-8.339 404.256,-0.49 400.332,-8.339 
			396.27,-0.216 392.208,-8.339 388.225,-0.372 384.241,-8.339 380.32,-0.497 376.398,-8.339 372.384,-0.31 368.369,-8.339 
			364.354,-0.31 360.339,-8.339 352.214,-12.402 360.339,-16.464 352.627,-20.321 360.339,-24.177 352.174,-28.259 360.339,-32.342 
			352.371,-36.326 360.339,-40.311 352.337,-44.312 360.339,-48.313 352.369,-52.298 360.339,-56.283 352.46,-60.223 
			360.339,-64.162 352.2,-68.231 360.339,-72.301 352.086,-76.428 360.339,-80.554 352.795,-84.326 360.339,-88.098 352.19,-92.173 
			360.339,-96.248 352.454,-100.19 360.339,-104.133 352.313,-108.146 360.339,-112.159 352,-116.328 360.339,-120.498 
			352.49,-124.422 360.339,-128.347 352.216,-132.409 360.339,-136.47 352.372,-140.454 360.339,-144.438 352.497,-148.359 
			360.339,-152.28 352.31,-156.295 360.339,-160.31 352.31,-164.325 360.339,-168.339 364.402,-176.464 368.464,-168.339 
			372.321,-176.052 376.177,-168.339 380.259,-176.505 384.342,-168.339 388.326,-176.308 392.311,-168.339 396.312,-176.341 
			400.313,-168.339 404.298,-176.31 408.283,-168.339 412.223,-176.218 416.162,-168.339 420.231,-176.478 424.301,-168.339 
			428.428,-176.593 432.554,-168.339 436.326,-175.883 440.098,-168.339 444.173,-176.489 448.248,-168.339 452.19,-176.224 
			456.133,-168.339 460.146,-176.365 464.159,-168.339 468.328,-176.679 472.498,-168.339 476.422,-176.188 480.347,-168.339 
			484.409,-176.463 488.47,-168.339 492.454,-176.307 496.438,-168.339 500.359,-176.182 504.28,-168.339 508.295,-176.369 
			512.31,-168.339 516.325,-176.369 520.339,-168.339 528.464,-164.277 520.339,-160.214 528.052,-156.358 520.339,-152.502 
			528.505,-148.419 520.339,-144.336 528.308,-140.352 520.339,-136.368 528.341,-132.367 520.339,-128.366 528.31,-124.381 
			520.339,-120.396 528.218,-116.456 520.339,-112.517 528.478,-108.447 520.339,-104.378 528.593,-100.251 520.339,-96.124 
			527.883,-92.353 520.339,-88.58 528.489,-84.506 520.339,-80.431 528.224,-76.488 520.339,-72.546 528.365,-68.533 
			520.339,-64.52 528.679,-60.35 520.339,-56.181 528.188,-52.256 520.339,-48.332 528.463,-44.27 520.339,-40.208 528.307,-36.225 
			520.339,-32.241 528.182,-28.32 520.339,-24.398 528.369,-20.384 520.339,-16.369 528.369,-12.354 		"/>
		<polygon points="344.339,-8.339 340.277,-0.214 336.214,-8.339 332.358,-0.627 328.502,-8.339 324.419,-0.174 320.336,-8.339 
			316.352,-0.371 312.368,-8.339 308.367,-0.338 304.366,-8.339 300.381,-0.369 296.396,-8.339 292.456,-0.46 288.517,-8.339 
			284.447,-0.2 280.378,-8.339 276.251,-0.086 272.124,-8.339 268.353,-0.795 264.58,-8.339 260.506,-0.19 256.431,-8.339 
			252.488,-0.454 248.546,-8.339 244.533,-0.313 240.52,-8.339 236.35,0 232.181,-8.339 228.256,-0.49 224.332,-8.339 
			220.27,-0.216 216.208,-8.339 212.225,-0.372 208.241,-8.339 204.32,-0.497 200.398,-8.339 196.384,-0.31 192.369,-8.339 
			188.354,-0.31 184.339,-8.339 176.214,-12.402 184.339,-16.464 176.627,-20.321 184.339,-24.177 176.174,-28.259 184.339,-32.342 
			176.371,-36.326 184.339,-40.311 176.338,-44.312 184.339,-48.313 176.369,-52.298 184.339,-56.283 176.46,-60.223 
			184.339,-64.162 176.2,-68.231 184.339,-72.301 176.086,-76.428 184.339,-80.554 176.795,-84.326 184.339,-88.098 176.19,-92.173 
			184.339,-96.248 176.454,-100.19 184.339,-104.133 176.313,-108.146 184.339,-112.159 176,-116.328 184.339,-120.498 
			176.49,-124.422 184.339,-128.347 176.216,-132.409 184.339,-136.47 176.372,-140.454 184.339,-144.438 176.497,-148.359 
			184.339,-152.28 176.31,-156.295 184.339,-160.31 176.31,-164.325 184.339,-168.339 188.402,-176.464 192.464,-168.339 
			196.321,-176.052 200.177,-168.339 204.259,-176.505 208.342,-168.339 212.326,-176.308 216.311,-168.339 220.312,-176.341 
			224.313,-168.339 228.298,-176.31 232.283,-168.339 236.223,-176.218 240.162,-168.339 244.231,-176.478 248.301,-168.339 
			252.428,-176.593 256.554,-168.339 260.326,-175.883 264.098,-168.339 268.173,-176.489 272.248,-168.339 276.19,-176.224 
			280.133,-168.339 284.146,-176.365 288.159,-168.339 292.328,-176.679 296.498,-168.339 300.422,-176.188 304.347,-168.339 
			308.409,-176.463 312.47,-168.339 316.454,-176.307 320.438,-168.339 324.359,-176.182 328.28,-168.339 332.295,-176.369 
			336.31,-168.339 340.325,-176.369 344.339,-168.339 352.464,-164.277 344.339,-160.214 352.052,-156.358 344.339,-152.502 
			352.505,-148.419 344.339,-144.336 352.308,-140.352 344.339,-136.368 352.341,-132.367 344.339,-128.366 352.31,-124.381 
			344.339,-120.396 352.218,-116.456 344.339,-112.517 352.478,-108.447 344.339,-104.378 352.593,-100.251 344.339,-96.124 
			351.883,-92.353 344.339,-88.58 352.489,-84.506 344.339,-80.431 352.224,-76.488 344.339,-72.546 352.365,-68.533 
			344.339,-64.52 352.679,-60.35 344.339,-56.181 352.188,-52.256 344.339,-48.332 352.463,-44.27 344.339,-40.208 352.307,-36.225 
			344.339,-32.241 352.182,-28.32 344.339,-24.398 352.369,-20.384 344.339,-16.369 352.369,-12.354 		"/>
		<polygon points="168.339,-8.339 164.277,-0.214 160.214,-8.339 156.358,-0.627 152.502,-8.339 148.419,-0.174 144.336,-8.339 
			140.352,-0.371 136.368,-8.339 132.367,-0.338 128.366,-8.339 124.381,-0.369 120.396,-8.339 116.456,-0.46 112.517,-8.339 
			108.447,-0.2 104.378,-8.339 100.251,-0.086 96.124,-8.339 92.353,-0.795 88.58,-8.339 84.506,-0.19 80.431,-8.339 76.488,-0.454 
			72.546,-8.339 68.533,-0.313 64.52,-8.339 60.35,0 56.181,-8.339 52.256,-0.49 48.332,-8.339 44.27,-0.216 40.208,-8.339 
			36.225,-0.372 32.241,-8.339 28.32,-0.497 24.398,-8.339 20.384,-0.31 16.369,-8.339 12.354,-0.31 8.339,-8.339 0.214,-12.402 
			8.339,-16.464 0.627,-20.321 8.339,-24.177 0.174,-28.259 8.339,-32.342 0.371,-36.326 8.339,-40.311 0.338,-44.312 
			8.339,-48.313 0.369,-52.298 8.339,-56.283 0.46,-60.223 8.339,-64.162 0.2,-68.231 8.339,-72.301 0.086,-76.428 8.339,-80.554 
			0.795,-84.326 8.339,-88.098 0.19,-92.173 8.339,-96.248 0.454,-100.19 8.339,-104.133 0.313,-108.146 8.339,-112.159 0,-116.328 
			8.339,-120.498 0.49,-124.422 8.339,-128.347 0.216,-132.409 8.339,-136.47 0.372,-140.454 8.339,-144.438 0.497,-148.359 
			8.339,-152.28 0.31,-156.295 8.339,-160.31 0.31,-164.325 8.339,-168.339 12.402,-176.464 16.464,-168.339 20.321,-176.052 
			24.177,-168.339 28.259,-176.505 32.342,-168.339 36.326,-176.308 40.311,-168.339 44.312,-176.341 48.313,-168.339 
			52.298,-176.31 56.283,-168.339 60.223,-176.218 64.162,-168.339 68.231,-176.478 72.301,-168.339 76.428,-176.593 
			80.554,-168.339 84.326,-175.883 88.098,-168.339 92.173,-176.489 96.248,-168.339 100.19,-176.224 104.133,-168.339 
			108.146,-176.365 112.159,-168.339 116.328,-176.679 120.498,-168.339 124.422,-176.188 128.347,-168.339 132.409,-176.463 
			136.47,-168.339 140.454,-176.307 144.438,-168.339 148.359,-176.182 152.28,-168.339 156.295,-176.369 160.31,-168.339 
			164.325,-176.369 168.339,-168.339 176.464,-164.277 168.339,-160.214 176.052,-156.358 168.339,-152.502 176.505,-148.419 
			168.339,-144.336 176.308,-140.352 168.339,-136.368 176.341,-132.367 168.339,-128.366 176.31,-124.381 168.339,-120.396 
			176.218,-116.456 168.339,-112.517 176.478,-108.447 168.339,-104.378 176.593,-100.251 168.339,-96.124 175.883,-92.353 
			168.339,-88.58 176.489,-84.506 168.339,-80.431 176.224,-76.488 168.339,-72.546 176.365,-68.533 168.339,-64.52 176.679,-60.35 
			168.339,-56.181 176.188,-52.256 168.339,-48.332 176.463,-44.27 168.339,-40.208 176.307,-36.225 168.339,-32.241 
			176.182,-28.32 168.339,-24.398 176.369,-20.384 168.339,-16.369 176.369,-12.354 		"/>
		<polygon points="520.339,-184.339 516.277,-176.214 512.214,-184.339 508.358,-176.627 504.502,-184.339 500.419,-176.174 
			496.336,-184.339 492.352,-176.371 488.368,-184.339 484.367,-176.338 480.366,-184.339 476.381,-176.369 472.396,-184.339 
			468.456,-176.46 464.517,-184.339 460.447,-176.2 456.378,-184.339 452.251,-176.086 448.124,-184.339 444.353,-176.795 
			440.58,-184.339 436.506,-176.19 432.431,-184.339 428.488,-176.454 424.546,-184.339 420.533,-176.313 416.52,-184.339 
			412.35,-176 408.181,-184.339 404.256,-176.49 400.332,-184.339 396.27,-176.216 392.208,-184.339 388.225,-176.372 
			384.241,-184.339 380.32,-176.497 376.398,-184.339 372.384,-176.31 368.369,-184.339 364.354,-176.31 360.339,-184.339 
			352.214,-188.402 360.339,-192.464 352.627,-196.321 360.339,-200.177 352.174,-204.259 360.339,-208.342 352.371,-212.326 
			360.339,-216.311 352.337,-220.312 360.339,-224.313 352.369,-228.298 360.339,-232.283 352.46,-236.223 360.339,-240.162 
			352.2,-244.231 360.339,-248.301 352.086,-252.428 360.339,-256.554 352.795,-260.326 360.339,-264.098 352.19,-268.173 
			360.339,-272.248 352.454,-276.19 360.339,-280.133 352.313,-284.146 360.339,-288.159 352,-292.328 360.339,-296.498 
			352.49,-300.422 360.339,-304.347 352.216,-308.409 360.339,-312.47 352.372,-316.454 360.339,-320.438 352.497,-324.359 
			360.339,-328.28 352.31,-332.295 360.339,-336.31 352.31,-340.325 360.339,-344.339 364.402,-352.464 368.464,-344.339 
			372.321,-352.052 376.177,-344.339 380.259,-352.505 384.342,-344.339 388.326,-352.308 392.311,-344.339 396.312,-352.341 
			400.313,-344.339 404.298,-352.31 408.283,-344.339 412.223,-352.218 416.162,-344.339 420.231,-352.478 424.301,-344.339 
			428.428,-352.593 432.554,-344.339 436.326,-351.883 440.098,-344.339 444.173,-352.489 448.248,-344.339 452.19,-352.224 
			456.133,-344.339 460.146,-352.365 464.159,-344.339 468.328,-352.679 472.498,-344.339 476.422,-352.188 480.347,-344.339 
			484.409,-352.463 488.47,-344.339 492.454,-352.307 496.438,-344.339 500.359,-352.182 504.28,-344.339 508.295,-352.369 
			512.31,-344.339 516.325,-352.369 520.339,-344.339 528.464,-340.277 520.339,-336.214 528.052,-332.358 520.339,-328.502 
			528.505,-324.419 520.339,-320.336 528.308,-316.352 520.339,-312.368 528.341,-308.367 520.339,-304.366 528.31,-300.381 
			520.339,-296.396 528.218,-292.456 520.339,-288.517 528.478,-284.447 520.339,-280.378 528.593,-276.251 520.339,-272.124 
			527.883,-268.353 520.339,-264.58 528.489,-260.506 520.339,-256.431 528.224,-252.488 520.339,-248.546 528.365,-244.533 
			520.339,-240.52 528.679,-236.35 520.339,-232.181 528.188,-228.256 520.339,-224.332 528.463,-220.27 520.339,-216.208 
			528.307,-212.225 520.339,-208.241 528.182,-204.32 520.339,-200.398 528.369,-196.384 520.339,-192.369 528.369,-188.354 		"/>
		<polygon points="344.339,-184.339 340.277,-176.214 336.214,-184.339 332.358,-176.627 328.502,-184.339 324.419,-176.174 
			320.336,-184.339 316.352,-176.371 312.368,-184.339 308.367,-176.338 304.366,-184.339 300.381,-176.369 296.396,-184.339 
			292.456,-176.46 288.517,-184.339 284.447,-176.2 280.378,-184.339 276.251,-176.086 272.124,-184.339 268.353,-176.795 
			264.58,-184.339 260.506,-176.19 256.431,-184.339 252.488,-176.454 248.546,-184.339 244.533,-176.313 240.52,-184.339 
			236.35,-176 232.181,-184.339 228.256,-176.49 224.332,-184.339 220.27,-176.216 216.208,-184.339 212.225,-176.372 
			208.241,-184.339 204.32,-176.497 200.398,-184.339 196.384,-176.31 192.369,-184.339 188.354,-176.31 184.339,-184.339 
			176.214,-188.402 184.339,-192.464 176.627,-196.321 184.339,-200.177 176.174,-204.259 184.339,-208.342 176.371,-212.326 
			184.339,-216.311 176.338,-220.312 184.339,-224.313 176.369,-228.298 184.339,-232.283 176.46,-236.223 184.339,-240.162 
			176.2,-244.231 184.339,-248.301 176.086,-252.428 184.339,-256.554 176.795,-260.326 184.339,-264.098 176.19,-268.173 
			184.339,-272.248 176.454,-276.19 184.339,-280.133 176.313,-284.146 184.339,-288.159 176,-292.328 184.339,-296.498 
			176.49,-300.422 184.339,-304.347 176.216,-308.409 184.339,-312.47 176.372,-316.454 184.339,-320.438 176.497,-324.359 
			184.339,-328.28 176.31,-332.295 184.339,-336.31 176.31,-340.325 184.339,-344.339 188.402,-352.464 192.464,-344.339 
			196.321,-352.052 200.177,-344.339 204.259,-352.505 208.342,-344.339 212.326,-352.308 216.311,-344.339 220.312,-352.341 
			224.313,-344.339 228.298,-352.31 232.283,-344.339 236.223,-352.218 240.162,-344.339 244.231,-352.478 248.301,-344.339 
			252.428,-352.593 256.554,-344.339 260.326,-351.883 264.098,-344.339 268.173,-352.489 272.248,-344.339 276.19,-352.224 
			280.133,-344.339 284.146,-352.365 288.159,-344.339 292.328,-352.679 296.498,-344.339 300.422,-352.188 304.347,-344.339 
			308.409,-352.463 312.47,-344.339 316.454,-352.307 320.438,-344.339 324.359,-352.182 328.28,-344.339 332.295,-352.369 
			336.31,-344.339 340.325,-352.369 344.339,-344.339 352.464,-340.277 344.339,-336.214 352.052,-332.358 344.339,-328.502 
			352.505,-324.419 344.339,-320.336 352.308,-316.352 344.339,-312.368 352.341,-308.367 344.339,-304.366 352.31,-300.381 
			344.339,-296.396 352.218,-292.456 344.339,-288.517 352.478,-284.447 344.339,-280.378 352.593,-276.251 344.339,-272.124 
			351.883,-268.353 344.339,-264.58 352.489,-260.506 344.339,-256.431 352.224,-252.488 344.339,-248.546 352.365,-244.533 
			344.339,-240.52 352.679,-236.35 344.339,-232.181 352.188,-228.256 344.339,-224.332 352.463,-220.27 344.339,-216.208 
			352.307,-212.225 344.339,-208.241 352.182,-204.32 344.339,-200.398 352.369,-196.384 344.339,-192.369 352.369,-188.354 		"/>
		<polygon points="168.339,-184.339 164.277,-176.214 160.214,-184.339 156.358,-176.627 152.502,-184.339 148.419,-176.174 
			144.336,-184.339 140.352,-176.371 136.368,-184.339 132.367,-176.338 128.366,-184.339 124.381,-176.369 120.396,-184.339 
			116.456,-176.46 112.517,-184.339 108.447,-176.2 104.378,-184.339 100.251,-176.086 96.124,-184.339 92.353,-176.795 
			88.58,-184.339 84.506,-176.19 80.431,-184.339 76.488,-176.454 72.546,-184.339 68.533,-176.313 64.52,-184.339 60.35,-176 
			56.181,-184.339 52.256,-176.49 48.332,-184.339 44.27,-176.216 40.208,-184.339 36.225,-176.372 32.241,-184.339 28.32,-176.497 
			24.398,-184.339 20.384,-176.31 16.369,-184.339 12.354,-176.31 8.339,-184.339 0.214,-188.402 8.339,-192.464 0.627,-196.321 
			8.339,-200.177 0.174,-204.259 8.339,-208.342 0.371,-212.326 8.339,-216.311 0.338,-220.312 8.339,-224.313 0.369,-228.298 
			8.339,-232.283 0.46,-236.223 8.339,-240.162 0.2,-244.231 8.339,-248.301 0.086,-252.428 8.339,-256.554 0.795,-260.326 
			8.339,-264.098 0.19,-268.173 8.339,-272.248 0.454,-276.19 8.339,-280.133 0.313,-284.146 8.339,-288.159 0,-292.328 
			8.339,-296.498 0.49,-300.422 8.339,-304.347 0.216,-308.409 8.339,-312.47 0.372,-316.454 8.339,-320.438 0.497,-324.359 
			8.339,-328.28 0.31,-332.295 8.339,-336.31 0.31,-340.325 8.339,-344.339 12.402,-352.464 16.464,-344.339 20.321,-352.052 
			24.177,-344.339 28.259,-352.505 32.342,-344.339 36.326,-352.308 40.311,-344.339 44.312,-352.341 48.313,-344.339 
			52.298,-352.31 56.283,-344.339 60.223,-352.218 64.162,-344.339 68.231,-352.478 72.301,-344.339 76.428,-352.593 
			80.554,-344.339 84.326,-351.883 88.098,-344.339 92.173,-352.489 96.248,-344.339 100.19,-352.224 104.133,-344.339 
			108.146,-352.365 112.159,-344.339 116.328,-352.679 120.498,-344.339 124.422,-352.188 128.347,-344.339 132.409,-352.463 
			136.47,-344.339 140.454,-352.307 144.438,-344.339 148.359,-352.182 152.28,-344.339 156.295,-352.369 160.31,-344.339 
			164.325,-352.369 168.339,-344.339 176.464,-340.277 168.339,-336.214 176.052,-332.358 168.339,-328.502 176.505,-324.419 
			168.339,-320.336 176.308,-316.352 168.339,-312.368 176.341,-308.367 168.339,-304.366 176.31,-300.381 168.339,-296.396 
			176.218,-292.456 168.339,-288.517 176.478,-284.447 168.339,-280.378 176.593,-276.251 168.339,-272.124 175.883,-268.353 
			168.339,-264.58 176.489,-260.506 168.339,-256.431 176.224,-252.488 168.339,-248.546 176.365,-244.533 168.339,-240.52 
			176.679,-236.35 168.339,-232.181 176.188,-228.256 168.339,-224.332 176.463,-220.27 168.339,-216.208 176.307,-212.225 
			168.339,-208.241 176.182,-204.32 168.339,-200.398 176.369,-196.384 168.339,-192.369 176.369,-188.354 		"/>
		<polygon points="520.339,-360.339 516.277,-352.214 512.214,-360.339 508.358,-352.627 504.502,-360.339 500.419,-352.174 
			496.336,-360.339 492.352,-352.371 488.368,-360.339 484.367,-352.337 480.366,-360.339 476.381,-352.369 472.396,-360.339 
			468.456,-352.46 464.517,-360.339 460.447,-352.2 456.378,-360.339 452.251,-352.086 448.124,-360.339 444.353,-352.795 
			440.58,-360.339 436.506,-352.19 432.431,-360.339 428.488,-352.454 424.546,-360.339 420.533,-352.313 416.52,-360.339 
			412.35,-352 408.181,-360.339 404.256,-352.49 400.332,-360.339 396.27,-352.216 392.208,-360.339 388.225,-352.372 
			384.241,-360.339 380.32,-352.497 376.398,-360.339 372.384,-352.31 368.369,-360.339 364.354,-352.31 360.339,-360.339 
			352.214,-364.402 360.339,-368.464 352.627,-372.321 360.339,-376.177 352.174,-380.259 360.339,-384.342 352.371,-388.326 
			360.339,-392.311 352.337,-396.312 360.339,-400.313 352.369,-404.298 360.339,-408.283 352.46,-412.223 360.339,-416.162 
			352.2,-420.231 360.339,-424.301 352.086,-428.428 360.339,-432.554 352.795,-436.326 360.339,-440.098 352.19,-444.173 
			360.339,-448.248 352.454,-452.19 360.339,-456.133 352.313,-460.146 360.339,-464.159 352,-468.328 360.339,-472.498 
			352.49,-476.422 360.339,-480.347 352.216,-484.409 360.339,-488.47 352.372,-492.454 360.339,-496.438 352.497,-500.359 
			360.339,-504.28 352.31,-508.295 360.339,-512.31 352.31,-516.325 360.339,-520.339 364.402,-528.464 368.464,-520.339 
			372.321,-528.052 376.177,-520.339 380.259,-528.505 384.342,-520.339 388.326,-528.308 392.311,-520.339 396.312,-528.341 
			400.313,-520.339 404.298,-528.31 408.283,-520.339 412.223,-528.218 416.162,-520.339 420.231,-528.478 424.301,-520.339 
			428.428,-528.593 432.554,-520.339 436.326,-527.883 440.098,-520.339 444.173,-528.489 448.248,-520.339 452.19,-528.224 
			456.133,-520.339 460.146,-528.365 464.159,-520.339 468.328,-528.679 472.498,-520.339 476.422,-528.188 480.347,-520.339 
			484.409,-528.463 488.47,-520.339 492.454,-528.307 496.438,-520.339 500.359,-528.182 504.28,-520.339 508.295,-528.369 
			512.31,-520.339 516.325,-528.369 520.339,-520.339 528.464,-516.277 520.339,-512.214 528.052,-508.358 520.339,-504.502 
			528.505,-500.419 520.339,-496.336 528.308,-492.352 520.339,-488.368 528.341,-484.367 520.339,-480.366 528.31,-476.381 
			520.339,-472.396 528.218,-468.456 520.339,-464.517 528.478,-460.447 520.339,-456.378 528.593,-452.251 520.339,-448.124 
			527.883,-444.353 520.339,-440.58 528.489,-436.506 520.339,-432.431 528.224,-428.488 520.339,-424.546 528.365,-420.533 
			520.339,-416.52 528.679,-412.35 520.339,-408.181 528.188,-404.256 520.339,-400.332 528.463,-396.27 520.339,-392.208 
			528.307,-388.225 520.339,-384.241 528.182,-380.32 520.339,-376.398 528.369,-372.384 520.339,-368.369 528.369,-364.354 		"/>
		<polygon points="344.339,-360.339 340.277,-352.214 336.214,-360.339 332.358,-352.627 328.502,-360.339 324.419,-352.174 
			320.336,-360.339 316.352,-352.371 312.368,-360.339 308.367,-352.337 304.366,-360.339 300.381,-352.369 296.396,-360.339 
			292.456,-352.46 288.517,-360.339 284.447,-352.2 280.378,-360.339 276.251,-352.086 272.124,-360.339 268.353,-352.795 
			264.58,-360.339 260.506,-352.19 256.431,-360.339 252.488,-352.454 248.546,-360.339 244.533,-352.313 240.52,-360.339 
			236.35,-352 232.181,-360.339 228.256,-352.49 224.332,-360.339 220.27,-352.216 216.208,-360.339 212.225,-352.372 
			208.241,-360.339 204.32,-352.497 200.398,-360.339 196.384,-352.31 192.369,-360.339 188.354,-352.31 184.339,-360.339 
			176.214,-364.402 184.339,-368.464 176.627,-372.321 184.339,-376.177 176.174,-380.259 184.339,-384.342 176.371,-388.326 
			184.339,-392.311 176.338,-396.312 184.339,-400.313 176.369,-404.298 184.339,-408.283 176.46,-412.223 184.339,-416.162 
			176.2,-420.231 184.339,-424.301 176.086,-428.428 184.339,-432.554 176.795,-436.326 184.339,-440.098 176.19,-444.173 
			184.339,-448.248 176.454,-452.19 184.339,-456.133 176.313,-460.146 184.339,-464.159 176,-468.328 184.339,-472.498 
			176.49,-476.422 184.339,-480.347 176.216,-484.409 184.339,-488.47 176.372,-492.454 184.339,-496.438 176.497,-500.359 
			184.339,-504.28 176.31,-508.295 184.339,-512.31 176.31,-516.325 184.339,-520.339 188.402,-528.464 192.464,-520.339 
			196.321,-528.052 200.177,-520.339 204.259,-528.505 208.342,-520.339 212.326,-528.308 216.311,-520.339 220.312,-528.341 
			224.313,-520.339 228.298,-528.31 232.283,-520.339 236.223,-528.218 240.162,-520.339 244.231,-528.478 248.301,-520.339 
			252.428,-528.593 256.554,-520.339 260.326,-527.883 264.098,-520.339 268.173,-528.489 272.248,-520.339 276.19,-528.224 
			280.133,-520.339 284.146,-528.365 288.159,-520.339 292.328,-528.679 296.498,-520.339 300.422,-528.188 304.347,-520.339 
			308.409,-528.463 312.47,-520.339 316.454,-528.307 320.438,-520.339 324.359,-528.182 328.28,-520.339 332.295,-528.369 
			336.31,-520.339 340.325,-528.369 344.339,-520.339 352.464,-516.277 344.339,-512.214 352.052,-508.358 344.339,-504.502 
			352.505,-500.419 344.339,-496.336 352.308,-492.352 344.339,-488.368 352.341,-484.367 344.339,-480.366 352.31,-476.381 
			344.339,-472.396 352.218,-468.456 344.339,-464.517 352.478,-460.447 344.339,-456.378 352.593,-452.251 344.339,-448.124 
			351.883,-444.353 344.339,-440.58 352.489,-436.506 344.339,-432.431 352.224,-428.488 344.339,-424.546 352.365,-420.533 
			344.339,-416.52 352.679,-412.35 344.339,-408.181 352.188,-404.256 344.339,-400.332 352.463,-396.27 344.339,-392.208 
			352.307,-388.225 344.339,-384.241 352.182,-380.32 344.339,-376.398 352.369,-372.384 344.339,-368.369 352.369,-364.354 		"/>
		<polygon points="168.339,-360.339 164.277,-352.214 160.214,-360.339 156.358,-352.627 152.502,-360.339 148.419,-352.174 
			144.336,-360.339 140.352,-352.371 136.368,-360.339 132.367,-352.337 128.366,-360.339 124.381,-352.369 120.396,-360.339 
			116.456,-352.46 112.517,-360.339 108.447,-352.2 104.378,-360.339 100.251,-352.086 96.124,-360.339 92.353,-352.795 
			88.58,-360.339 84.506,-352.19 80.431,-360.339 76.488,-352.454 72.546,-360.339 68.533,-352.313 64.52,-360.339 60.35,-352 
			56.181,-360.339 52.256,-352.49 48.332,-360.339 44.27,-352.216 40.208,-360.339 36.225,-352.372 32.241,-360.339 28.32,-352.497 
			24.398,-360.339 20.384,-352.31 16.369,-360.339 12.354,-352.31 8.339,-360.339 0.214,-364.402 8.339,-368.464 0.627,-372.321 
			8.339,-376.177 0.174,-380.259 8.339,-384.342 0.371,-388.326 8.339,-392.311 0.338,-396.312 8.339,-400.313 0.369,-404.298 
			8.339,-408.283 0.46,-412.223 8.339,-416.162 0.2,-420.231 8.339,-424.301 0.086,-428.428 8.339,-432.554 0.795,-436.326 
			8.339,-440.098 0.19,-444.173 8.339,-448.248 0.454,-452.19 8.339,-456.133 0.313,-460.146 8.339,-464.159 0,-468.328 
			8.339,-472.498 0.49,-476.422 8.339,-480.347 0.216,-484.409 8.339,-488.47 0.372,-492.454 8.339,-496.438 0.497,-500.359 
			8.339,-504.28 0.31,-508.295 8.339,-512.31 0.31,-516.325 8.339,-520.339 12.402,-528.464 16.464,-520.339 20.321,-528.052 
			24.177,-520.339 28.259,-528.505 32.342,-520.339 36.326,-528.308 40.311,-520.339 44.312,-528.341 48.313,-520.339 
			52.298,-528.31 56.283,-520.339 60.223,-528.218 64.162,-520.339 68.231,-528.478 72.301,-520.339 76.428,-528.593 
			80.554,-520.339 84.326,-527.883 88.098,-520.339 92.173,-528.489 96.248,-520.339 100.19,-528.224 104.133,-520.339 
			108.146,-528.365 112.159,-520.339 116.328,-528.679 120.498,-520.339 124.422,-528.188 128.347,-520.339 132.409,-528.463 
			136.47,-520.339 140.454,-528.307 144.438,-520.339 148.359,-528.182 152.28,-520.339 156.295,-528.369 160.31,-520.339 
			164.325,-528.369 168.339,-520.339 176.464,-516.277 168.339,-512.214 176.052,-508.358 168.339,-504.502 176.505,-500.419 
			168.339,-496.336 176.308,-492.352 168.339,-488.368 176.341,-484.367 168.339,-480.366 176.31,-476.381 168.339,-472.396 
			176.218,-468.456 168.339,-464.517 176.478,-460.447 168.339,-456.378 176.593,-452.251 168.339,-448.124 175.883,-444.353 
			168.339,-440.58 176.489,-436.506 168.339,-432.431 176.224,-428.488 168.339,-424.546 176.365,-420.533 168.339,-416.52 
			176.679,-412.35 168.339,-408.181 176.188,-404.256 168.339,-400.332 176.463,-396.27 168.339,-392.208 176.307,-388.225 
			168.339,-384.241 176.182,-380.32 168.339,-376.398 176.369,-372.384 168.339,-368.369 176.369,-364.354 		"/>
	</g>
</pattern>
<rect fill="url(#New_Pattern)" width="2560" height="1600"/>
</svg>
