<?xml version="1.0" encoding="utf-8"?>
<!DOCTYPE svg PUBLIC "-//W3C//DTD SVG 1.1//EN" "http://www.w3.org/Graphics/SVG/1.1/DTD/svg11.dtd">
<svg version="1.1"
	 id="Layer_1" xmlns:dc="http://purl.org/dc/elements/1.1/" xmlns:cc="http://creativecommons.org/ns#" xmlns:rdf="http://www.w3.org/1999/02/22-rdf-syntax-ns#" xmlns:svg="http://www.w3.org/2000/svg"
	 xmlns="http://www.w3.org/2000/svg" xmlns:xlink="http://www.w3.org/1999/xlink" x="0px" y="0px" viewBox="0 0 2560 1600"
	 enable-background="new 0 0 2560 1600" xml:space="preserve">
<pattern  y="1600" width="231" height="199" patternUnits="userSpaceOnUse" id="SVGID_1_" viewBox="144.3624 -348.5001 231 199" overflow="visible">
	<g>
		<polygon fill="none" points="144.3624,-149.5001 375.3624,-149.5001 375.3624,-348.5001 144.3624,-348.5001 		"/>
		<g id="g4_2_">
			<polygon id="polygon6_2_" fill="none" points="144.3624,-149.5001 375.3624,-149.5001 375.3624,-348.5001 144.3624,-348.5001 			
				"/>
			<g id="layer1_14_" transform="translate(-81.93105,-336.48991)">
				<g id="g11879_14_">
					<path id="path7521-3_8_" fill="#F4F4F4" d="M543.9211-61.5101l-57.735,99.9999l-57.735-99.9999l57.735-99.9999
						L543.9211-61.5101z"/>
					<path id="path7531-0_8_" fill="#CCCCCC" d="M486.1855,35.0898l-55.772-96.5999h-1.963l57.735,99.9999L486.1855,35.0898
						L486.1855,35.0898z"/>
				</g>
			</g>
			<g id="layer1_13_" transform="translate(-81.93105,-336.48991)">
				<g id="g11879_13_">
					<path id="path7521-3_7_" fill="#F4F4F4" d="M312.9212-61.5101l-57.735,99.9999l-57.7349-99.9999l57.7349-99.9999
						L312.9212-61.5101z"/>
					<path id="path7525-9_4_" fill="#CCCCCC" d="M255.1861,35.0898l55.772-96.5999h1.963l-57.735,99.9999L255.1861,35.0898
						L255.1861,35.0898z"/>
					<path id="path7531-0_7_" fill="#CCCCCC" d="M255.1854,35.0898l-55.772-96.5999h-1.963l57.735,99.9999V35.0898z"/>
				</g>
			</g>
			<g id="layer1_12_" transform="translate(-81.93105,-336.48991)">
				<g id="g11879_12_">
					<path id="path7521-3_5_" fill="#F4F4F4" d="M543.9211,137.4899l-57.735,99.9999l-57.735-99.9999l57.735-99.9999
						L543.9211,137.4899z"/>
					<path id="path7529-9_4_" fill="#CCCCCC" d="M486.1855,40.89l-55.772,96.5999h-1.963l57.735-99.9999L486.1855,40.89
						L486.1855,40.89z"/>
					<path id="path7531-0_5_" fill="#CCCCCC" d="M486.1855,234.0898l-55.772-96.5999h-1.963l57.735,99.9999L486.1855,234.0898
						L486.1855,234.0898z"/>
				</g>
			</g>
			<g id="layer1_9_" transform="translate(-81.93105,-336.48991)">
				<g id="g11879_9_">
					<path id="path7487-2_4_" fill="#F4F4F4" d="M255.1908,37.49l57.735,99.9999l57.735-99.9999l-57.735-99.9999L255.1908,37.49z"/>
					<path id="path7491-3_2_" fill="#CCCCCC" d="M312.9258,134.09l-55.772-96.5999h-1.963l57.735,99.9998V134.09z"/>
					<path id="path7493-3_4_" fill="#CCCCCC" d="M312.9258-59.1099L257.1537,37.49h-1.963l57.735-99.9999V-59.1099z"/>
					<path id="path7495-7_4_" fill="#CCCCCC" d="M312.9266-59.1099l55.772,96.5999h1.963l-57.735-99.9999V-59.1099z"/>
					<path id="path7497-3_2_" fill="#CCCCCC" d="M312.9266,134.0899l55.772-96.5999h1.963l-57.735,99.9998V134.0899z"/>
					<path id="path7499-0_4_" fill="#F4F4F4" d="M370.666,37.4897l-57.735,99.9999h115.47l57.735-99.9999H370.666z"/>
					<path id="path7501-9_2_" fill="#CCCCCC" d="M315.8755,135.7896l55.772-96.5999l-0.9815-1.7l-57.735,99.9999L315.8755,135.7896z
						"/>
					<path id="path7503-9_4_" fill="#808080" d="M483.1916,39.1897h-111.544l-0.9815-1.7h115.47L483.1916,39.1897z"/>
					<path id="path7505-5_4_" fill="#CCCCCC" d="M483.1919,39.1903l-55.772,96.5999l0.9815,1.7l57.735-99.9999L483.1919,39.1903z"/>
					<path id="path7507-3_2_" fill="#FFFFFF" d="M315.8759,135.7902h111.5439l0.9815,1.7H312.9315L315.8759,135.7902z"/>
					<path id="path7509-9_8_" fill="#F4F4F4" d="M370.666,37.4903l-57.735-99.9999h115.47l57.735,99.9999L370.666,37.4903
						L370.666,37.4903z"/>
					<path id="path7511-8_4_" fill="#CCCCCC" d="M315.8755-60.8096l55.772,96.5999l-0.9815,1.7l-57.735-99.9999L315.8755-60.8096z"
						/>
					<path id="path7513-4_4_" fill="#FFFFFF" d="M483.1916,35.7903h-111.544l-0.9815,1.7h115.47L483.1916,35.7903z"/>
					<path id="path7515-5_8_" fill="#CCCCCC" d="M483.1919,35.7897l-55.772-96.5999l0.9815-1.7l57.735,99.9999L483.1919,35.7897z"/>
					<path id="path7517-0_4_" fill="#808080" d="M315.8759-60.8102h111.5439l0.9815-1.7H312.9315L315.8759-60.8102z"/>
					<path id="path7521-3_4_" fill="#F4F4F4" d="M312.9212,137.4899l-57.735,99.9999l-57.7349-99.9999L255.1861,37.49
						L312.9212,137.4899z"/>
					<path id="path7525-9_3_" fill="#CCCCCC" d="M255.1861,234.0898l55.772-96.5999h1.963l-57.735,99.9999L255.1861,234.0898
						L255.1861,234.0898z"/>
					<path id="path7527-2_2_" fill="#CCCCCC" d="M255.1861,40.89l55.772,96.5999h1.963L255.1862,37.49L255.1861,40.89
						L255.1861,40.89z"/>
					<path id="path7529-9_3_" fill="#CCCCCC" d="M255.1854,40.89l-55.772,96.5999h-1.963l57.735-99.9999V40.89z"/>
					<path id="path7531-0_4_" fill="#CCCCCC" d="M255.1854,234.0898l-55.772-96.5999h-1.963l57.735,99.9999V234.0898z"/>
				</g>
			</g>
			<g id="layer1_8_" transform="translate(-81.93105,-336.48991)">
				<g id="g11879_8_">
					<path id="path7499-0_3_" fill="#F4F4F4" d="M139.666,37.4897l-57.735,99.9999h115.47l57.7349-99.9999H139.666z"/>
					<path id="path7503-9_3_" fill="#808080" d="M252.1915,39.1897h-111.544l-0.9815-1.7h115.4699L252.1915,39.1897z"/>
					<path id="path7505-5_3_" fill="#CCCCCC" d="M252.1918,39.1903l-55.772,96.5999l0.9815,1.7l57.7349-99.9999L252.1918,39.1903z"
						/>
					<path id="path7509-9_7_" fill="#F4F4F4" d="M139.666,37.4903l-57.735-99.9999h115.47l57.7349,99.9999L139.666,37.4903
						L139.666,37.4903z"/>
					<path id="path7513-4_3_" fill="#FFFFFF" d="M252.1915,35.7903h-111.544l-0.9815,1.7h115.4699L252.1915,35.7903z"/>
					<path id="path7515-5_7_" fill="#CCCCCC" d="M252.1918,35.7897l-55.772-96.5999l0.9815-1.7l57.7349,99.9999L252.1918,35.7897z"
						/>
				</g>
			</g>
			<g id="layer1_7_" transform="translate(-81.93105,-336.48991)">
				<g id="g11879_7_">
					<path id="path7487-2_3_" fill="#F4F4F4" d="M255.1908,236.49l57.735,99.9999l57.735-99.9999l-57.735-99.9999L255.1908,236.49z"
						/>
					<path id="path7493-3_3_" fill="#CCCCCC" d="M312.9258,139.8901l-55.772,96.5999h-1.963l57.735-99.9999V139.8901z"/>
					<path id="path7495-7_3_" fill="#CCCCCC" d="M312.9266,139.8901l55.772,96.5999h1.963l-57.735-99.9999V139.8901z"/>
					<path id="path7509-9_6_" fill="#F4F4F4" d="M370.666,236.4903l-57.735-99.9999h115.47l57.735,99.9999H370.666z"/>
					<path id="path7511-8_3_" fill="#CCCCCC" d="M315.8755,138.1904l55.772,96.5999l-0.9815,1.7l-57.735-99.9999L315.8755,138.1904z
						"/>
					<path id="path7515-5_6_" fill="#CCCCCC" d="M483.1919,234.7897l-55.772-96.5999l0.9815-1.7l57.735,99.9999L483.1919,234.7897z"
						/>
					<path id="path7517-0_3_" fill="#808080" d="M315.8759,138.1898h111.5439l0.9815-1.7H312.9315L315.8759,138.1898z"/>
				</g>
			</g>
			<g id="layer1_5_" transform="translate(-81.93105,-336.48991)">
				<g id="g11879_5_">
					<path id="path7509-9_5_" fill="#F4F4F4" d="M139.666,236.4903l-57.735-99.9999h115.47l57.7349,99.9999H139.666z"/>
					<path id="path7515-5_5_" fill="#CCCCCC" d="M252.1918,234.7897l-55.772-96.5999l0.9815-1.7l57.735,99.9999L252.1918,234.7897z"
						/>
				</g>
			</g>
		</g>
	</g>
</pattern>
<pattern  id="rect66_1_" xlink:href="#SVGID_1_" patternTransform="matrix(0.5 0 0 -0.5 -3409 -13371.5)">
</pattern>
<rect id="rect66" fill="url(#rect66_1_)" width="2560" height="1600"/>
</svg>
